<?xml version="1.0" encoding="utf-8"?>
<!-- Generator: Adobe Illustrator 16.0.0, SVG Export Plug-In . SVG Version: 6.00 Build 0)  -->
<!DOCTYPE svg PUBLIC "-//W3C//DTD SVG 1.1//EN" "http://www.w3.org/Graphics/SVG/1.1/DTD/svg11.dtd">
<svg version="1.1" id="Layer_1" xmlns="http://www.w3.org/2000/svg" xmlns:xlink="http://www.w3.org/1999/xlink" x="0px" y="0px"
	 width="54px" height="54px" viewBox="0 0 54 54" enable-background="new 0 0 54 54" xml:space="preserve">
<rect fill="#E62117" width="54" height="54"/>
<g>
	<path fill="#FFFFFF" d="M38.138,22.455c0,0-0.223-1.567-0.906-2.256c-0.865-0.906-1.833-0.91-2.277-0.964
		c-3.181-0.23-7.954-0.23-7.954-0.23h-0.008c0,0-4.774,0-7.954,0.23c-0.444,0.054-1.412,0.058-2.278,0.964
		c-0.684,0.689-0.901,2.256-0.901,2.256s-0.227,1.838-0.227,3.682v1.723c0,1.838,0.227,3.681,0.227,3.681s0.223,1.567,0.901,2.257
		c0.866,0.905,2.003,0.874,2.509,0.973C21.09,34.942,27,34.995,27,34.995s4.778-0.008,7.958-0.234
		c0.444-0.054,1.412-0.058,2.278-0.964c0.684-0.688,0.906-2.256,0.906-2.256s0.226-1.838,0.226-3.681v-1.723
		c-0.004-1.839-0.23-3.681-0.23-3.681V22.455z M24.646,29.951v-6.391l6.142,3.207L24.646,29.951z"/>
</g>
</svg>
