<?xml version="1.0" encoding="utf-8"?>
<!-- Generator: Adobe Illustrator 16.0.0, SVG Export Plug-In . SVG Version: 6.00 Build 0)  -->
<!DOCTYPE svg PUBLIC "-//W3C//DTD SVG 1.1//EN" "http://www.w3.org/Graphics/SVG/1.1/DTD/svg11.dtd">
<svg version="1.1" id="Layer_1" xmlns="http://www.w3.org/2000/svg" xmlns:xlink="http://www.w3.org/1999/xlink" x="0px" y="0px"
	 width="54px" height="54px" viewBox="11 11 54 54" enable-background="new 11 11 54 54" xml:space="preserve">
<rect x="11" y="11" fill="#6FAEDC" width="54" height="54"/>
<g>
	<path fill="#FFFFFF" d="M49.37,30.948c-0.834,0.372-1.735,0.622-2.679,0.731c0.964-0.578,1.702-1.492,2.053-2.58
		c-0.902,0.533-1.901,0.924-2.962,1.132c-0.854-0.905-2.065-1.469-3.407-1.469c-2.576,0-4.663,2.087-4.663,4.663
		c0,0.365,0.04,0.72,0.12,1.062c-3.876-0.194-7.314-2.052-9.614-4.875c-0.4,0.688-0.63,1.492-0.63,2.345
		c0,1.616,0.821,3.046,2.074,3.882c-0.764-0.022-1.483-0.235-2.114-0.582c0,0.018,0,0.041,0,0.059c0,2.259,1.608,4.148,3.744,4.573
		c-0.391,0.106-0.804,0.165-1.23,0.165c-0.302,0-0.591-0.032-0.879-0.085c0.596,1.851,2.319,3.202,4.356,3.242
		c-1.599,1.252-3.606,1.998-5.795,1.998c-0.377,0-0.746-0.021-1.115-0.066c2.07,1.327,4.521,2.095,7.155,2.095
		c8.581,0,13.273-7.11,13.273-13.273c0-0.204-0.004-0.404-0.014-0.604C47.953,32.707,48.744,31.886,49.37,30.948L49.37,30.948z"/>
</g>
</svg>
